<?xml version="1.0" encoding="utf-8"?>
<!-- Generator: Adobe Illustrator 25.4.1, SVG Export Plug-In . SVG Version: 6.00 Build 0)  -->
<svg version="1.1" id="Layer_1" xmlns="http://www.w3.org/2000/svg" xmlns:xlink="http://www.w3.org/1999/xlink" x="0px" y="0px"
	 viewBox="0 0 252 72" style="enable-background:new 0 0 252 72;" xml:space="preserve">
<style type="text/css">
	.st0{fill:#0078C8;}
	.st1{fill:#484E58;}
</style>
<g>
	<path class="st0" d="M34.58,51.34h-9.83V36.26c0-1.38-0.15-2.33-0.45-2.85c-0.3-0.52-0.89-0.78-1.75-0.78
		c-0.67,0-1.25,0.2-1.75,0.6c-0.5,0.4-0.79,0.82-0.87,1.24c-0.08,0.43-0.12,1.32-0.12,2.69v14.17H9.97V17.71h9.83v11.53
		c1.77-2.32,4.09-3.47,6.95-3.47c1.44,0,2.71,0.25,3.81,0.75c1.09,0.5,1.93,1.15,2.53,1.93c0.59,0.79,0.99,1.55,1.19,2.29
		c0.21,0.74,0.31,2.17,0.31,4.29V51.34z"/>
	<path class="st0" d="M63.46,51.34H54.1c-0.23-1.07-0.34-2.23-0.34-3.5c-1.77,2.68-4.46,4.02-8.06,4.02c-2.96,0-5.17-0.76-6.64-2.27
		c-1.47-1.51-2.21-3.24-2.21-5.2c0-2.64,1.2-4.78,3.61-6.42c2.41-1.63,6.67-2.62,12.8-2.94v-0.57c0-1.1-0.25-1.83-0.75-2.19
		c-0.5-0.36-1.24-0.54-2.2-0.54c-2.27,0-3.53,0.91-3.79,2.73l-8.97-0.84c1.28-5.24,5.64-7.86,13.08-7.86c2.02,0,3.88,0.2,5.57,0.6
		c1.69,0.4,3.03,1.03,4.02,1.88c0.99,0.85,1.65,1.76,1.98,2.71c0.34,0.95,0.51,2.78,0.51,5.49v10
		C62.7,48.37,62.95,49.99,63.46,51.34z M53.27,39.61c-4.19,0.44-6.28,1.78-6.28,4.02c0,1.51,0.83,2.27,2.49,2.27
		c1.05,0,1.95-0.31,2.69-0.94c0.74-0.62,1.11-2,1.11-4.14V39.61z"/>
	<path class="st0" d="M87.86,26.29l-9.18,25.05h-7.34l-9.39-25.05h10.1l3.59,10.64c0.3,0.87,0.56,1.73,0.79,2.59
		c0.08-0.3,0.2-0.67,0.37-1.13c0.03-0.07,0.14-0.38,0.32-0.94l3.68-11.16H87.86z"/>
	<path class="st0" d="M103.75,42.35l9.16,0.62c-0.54,2.46-1.93,4.56-4.15,6.29c-2.23,1.73-5.23,2.6-9.03,2.6
		c-4.22,0-7.59-1.22-10.1-3.66c-2.51-2.44-3.77-5.46-3.77-9.08c0-3.74,1.24-6.91,3.72-9.48c2.48-2.58,5.79-3.87,9.93-3.87
		c4.01,0,7.25,1.22,9.72,3.65c2.47,2.43,3.71,5.74,3.71,9.93c0,0.34-0.01,0.82-0.02,1.43H96.13c0.03,1.58,0.31,2.75,0.84,3.51
		c0.53,0.76,1.53,1.15,3.01,1.15C102.11,45.43,103.37,44.4,103.75,42.35z M103.08,35.84c-0.02-1.69-0.36-2.83-1.02-3.41
		c-0.66-0.58-1.49-0.87-2.47-0.87c-2.32,0-3.49,1.43-3.49,4.29H103.08z"/>
	<path class="st0" d="M138.92,51.34h-9.83V35.57c0-1.3-0.2-2.13-0.6-2.49c-0.4-0.36-0.91-0.54-1.52-0.54
		c-1.79,0-2.69,1.25-2.69,3.74v15.05h-9.83V26.29h9.12v3.55c1.35-2.71,3.75-4.06,7.22-4.06c1.82,0,3.36,0.35,4.62,1.05
		c1.26,0.7,2.16,1.6,2.7,2.71c0.54,1.11,0.81,3.03,0.81,5.78V51.34z"/>
	<path class="st1" d="M157.93,41.24l8.38,0.71c-0.39,2.92-1.62,5.3-3.68,7.14c-2.06,1.84-4.8,2.76-8.22,2.76
		c-3.83,0-6.93-1.2-9.32-3.61c-2.39-2.41-3.58-5.49-3.58-9.25c0-3.84,1.19-7.01,3.56-9.5c2.37-2.49,5.46-3.73,9.25-3.73
		c3.37,0,6.11,0.94,8.23,2.82c2.12,1.88,3.33,4.26,3.65,7.13l-8.6,0.71c-0.36-2.64-1.36-3.97-3.01-3.97c-1.05,0-1.82,0.48-2.3,1.44
		c-0.48,0.96-0.73,2.63-0.73,5.01c0,2.05,0.24,3.57,0.73,4.56c0.48,0.99,1.33,1.48,2.53,1.48
		C156.56,44.96,157.61,43.72,157.93,41.24z"/>
	<path class="st1" d="M176.86,51.34h-9.41V26.29h8.18v5.17c0.94-3.76,3.11-5.64,6.53-5.64c0.34,0,0.82,0.03,1.43,0.1v8.75
		c-0.69-0.16-1.31-0.25-1.85-0.25c-3.25,0-4.88,1.81-4.88,5.44V51.34z"/>
	<path class="st1" d="M210.95,26.29l-9.83,27.15c-0.76,2.05-1.84,3.66-3.25,4.82c-1.41,1.16-3.59,1.74-6.53,1.74
		c-0.71,0-2.35-0.07-4.93-0.22v-6.97c1.28,0.2,2.46,0.3,3.55,0.3c2.82,0,4.24-0.62,4.24-1.87c0-0.41-0.14-0.98-0.42-1.7l-8.99-23.23
		h10.51l4.14,13.37l4.32-13.37H210.95z"/>
	<path class="st1" d="M222.2,51.86c-4.16,0-7.46-1.29-9.9-3.88c-2.45-2.59-3.67-5.62-3.67-9.1c0-3.74,1.28-6.86,3.83-9.36
		c2.55-2.5,5.88-3.74,9.97-3.74c4.12,0,7.44,1.23,9.94,3.7c2.5,2.46,3.76,5.55,3.76,9.26c0,3.74-1.27,6.87-3.81,9.37
		C229.78,50.6,226.41,51.86,222.2,51.86z M222.35,45.9c1.53,0,2.46-0.79,2.8-2.38c0.34-1.58,0.51-3.24,0.51-4.96
		c0-2.35-0.24-4.04-0.71-5.07c-0.48-1.03-1.33-1.55-2.56-1.55c-1.13,0-1.96,0.53-2.49,1.6c-0.53,1.07-0.79,2.83-0.79,5.27
		c0,2.87,0.27,4.78,0.81,5.7C220.46,45.43,221.27,45.9,222.35,45.9z"/>
</g>
<g>
	<path class="st1" d="M237.36,26.2h-1.14v3.28h-0.47V26.2h-1.15v-0.34h2.75V26.2z M239.89,28.54h0.02l1.02-2.68h0.85v3.62h-0.47
		v-3.25h-0.02l-1.25,3.25h-0.29l-1.25-3.25h-0.02v3.25H238v-3.62h0.85L239.89,28.54z"/>
</g>
</svg>
